<?xml version="1.0" standalone="no"?>
<svg xmlns="http://www.w3.org/2000/svg" version="1.1">
<polyline points="79,301" style="fill:none;stroke:black;stroke-width:1" />
<polyline points="18,248" style="fill:none;stroke:black;stroke-width:1" />
<polyline points="11,181" style="fill:none;stroke:black;stroke-width:1" />
<polyline points="9,181 9,183 8,184 7,184 8,184 9,183" style="fill:none;stroke:black;stroke-width:1" />
<polyline points="13,163 14,163" style="fill:none;stroke:black;stroke-width:1" />
<polyline points="101,27 99,29 96,29 95,30 92,30 91,31 90,31 89,32 87,32 87,33 86,34 85,34 83,36 82,36 80,38 80,39 78,41 78,42 76,44 76,46 75,47 75,55 77,57 78,57 77,56 76,56 75,55 75,53 77,51 78,51 79,52 81,52 82,53 80,55 81,54 89,54 90,55 95,55 96,56 98,56 99,57 99,58 97,60 97,61 96,62 96,64 97,65 96,66 95,66 95,78 96,79 96,83 97,84 97,87 98,88 98,90 99,91 99,95 101,97 101,114 100,115 100,116 99,117 100,118 98,120 98,122 97,123 95,123 93,125 93,126 95,126 96,127 94,129 93,129 92,130 91,130 90,129 90,128 91,127 91,126 87,126 86,127 82,127 81,128 76,128 75,129 71,129 70,130 68,130 66,132 64,132 63,133 62,133 61,134 59,134 59,135 58,136 57,135 57,136 56,137 55,137 54,138 53,138 54,138 55,139 55,140 53,142 51,142 50,141 51,140 52,140 51,139 47,139 46,140 43,140 43,141 42,142 41,141 39,143 36,143 35,144 31,144 30,145 24,145 23,146 23,148 24,149 25,148 26,148 26,147 27,146 28,146 29,147 28,148 28,149 26,151 28,153 28,154 29,155 28,156 26,156 25,157 24,157 23,158 22,158 19,161 18,161 17,162 16,162 17,163 15,165 12,165 11,164 9,164 7,166 6,166 6,168 7,169 7,170 13,176 13,177 11,179 12,179 16,175 16,174 17,173 18,173 16,173 14,171 14,170 12,168 13,167 14,167 17,170 17,169 18,168 20,168 21,169 21,170 23,170 24,171 23,172 23,173 22,174 21,174 18,177 17,177 15,179 15,180 8,187 7,187 5,185 4,186 3,186 2,187 1,187 0,188 0,190 1,190 7,196 7,197 8,197 9,198 10,198 11,199 12,199 13,200 14,200 15,199 16,199 17,198 18,199 18,200 17,201 17,205 15,207 14,207 12,205 14,203 13,202 12,202 11,203 11,204 10,205 10,206 9,207 9,211 8,212 8,214 7,215 7,219 6,220 6,222 5,223 5,224 3,226 2,226 3,227 5,227 6,226 7,226 8,227 14,227 15,226 17,226 19,224 21,224 22,225 22,240 21,241 21,244 19,246 20,247 20,249 19,250 17,250 17,252 18,252 19,251 23,251 24,250 27,250 28,249 29,249 31,251 31,253 32,254 32,257 33,258 33,262 34,263 34,267 33,268 33,272 35,272 36,271 37,271 42,266 43,266 44,265 45,266 45,272 46,272 47,273 47,276 48,275 47,274 47,273 46,272 46,269 47,268 49,270 49,271 50,272 50,273 51,274 51,275 52,276 50,278 52,280 53,280 60,287 61,286 62,286 63,287 63,288 64,287 65,287 66,288 66,289 67,289 68,290 66,292 66,293 67,294 68,294 70,296 71,296 72,297 74,297 75,298 75,299 78,299 79,298 81,300 81,302 82,301 85,304 85,305 87,307 88,307 89,306 90,307 90,309 91,310 92,310 93,311 94,311 95,312 97,312 98,313 109,313 110,312 111,312 110,311 110,310 109,310 108,309 108,308 107,309 105,307 103,307 102,306 102,305 101,304 101,303 102,302 103,303 103,302 102,301 102,297 101,296 101,294 100,293 100,292 101,291 101,288 100,287 101,286 101,285 98,282 98,281 100,279 101,279 102,278 102,277 99,274 99,273 98,272 98,271 97,270 97,268 96,267 96,263 95,262 95,261 94,260 94,259 95,258 95,256 94,256 92,258 91,257 91,255 92,254 93,254 93,253 92,252 92,251 91,250 89,250 88,249 91,246 91,243 92,242 92,239 93,238 95,238 96,239 97,239 98,240 98,241 99,241 100,242 102,242 103,243 104,243 105,244 108,244 108,239 107,238 107,228 107,230 106,231 105,230 105,227 106,226 106,224 107,223 107,220 106,219 107,218 112,218 113,219 115,219 116,218 116,216 115,216 114,215 115,214 114,215 115,216 115,217 114,218 109,218 108,217 107,217 106,216 106,215 107,214 108,214 109,215 112,215 112,214 114,212 114,211 113,210 113,208 111,206 111,203 112,202 112,201 113,200 113,192 115,190 116,190 118,188 119,188 120,187 121,187 123,185 124,185 124,184 125,183 126,183 125,183 124,182 124,181 125,180 125,179 126,178 127,179 127,181 128,181 129,180 130,180 131,179 130,178 131,177 132,177 132,176 134,174 134,173 136,171 136,170 137,169 137,168 136,167 137,166 138,166 138,162 139,161 139,157 140,156 140,145 139,144 139,141 138,140 138,137 137,136 137,135 136,135 136,137 135,138 133,136 133,133 134,132 135,133 136,133 136,132 133,129 133,128 133,129 131,131 130,130 130,129 129,129 128,128 130,126 131,127 130,126 131,125 131,124 130,123 129,123 128,122 128,121 127,120 127,119 125,117 125,116 123,114 123,113 120,110 120,109 118,107 118,105 117,105 116,104 116,102 115,102 114,101 115,100 115,99 114,98 114,94 113,93 113,83 115,81 115,80 117,78 115,78 113,76 113,75 111,73 111,72 112,71 115,74 115,75 116,76 125,76 126,77 127,77 132,82 133,82 133,79 132,78 132,76 130,74 130,73 127,70 127,69 126,68 126,67 125,66 125,65 123,63 123,62 119,58 118,58 117,57 116,57 114,55 112,55 111,54 106,54 105,55 104,55 103,54 103,36 104,35 104,33 106,31 106,29 104,27" style="fill:none;stroke:black;stroke-width:1" />
</svg>